<svg xmlns="http://www.w3.org/2000/svg" viewBox="0 0 240 240"><defs><linearGradient id="a" x1="50" y1="190" x2="160" y2="30" gradientUnits="userSpaceOnUse"><stop stop-color="#1f6d55"/><stop offset=".55" stop-color="#72ad74"/><stop offset="1" stop-color="#d9e7a8"/></linearGradient><linearGradient id="b" x1="95" y1="210" x2="178" y2="42" gradientUnits="userSpaceOnUse"><stop stop-color="#0e5546"/><stop offset="1" stop-color="#9bc47b"/></linearGradient><filter id="s" x="-30%" y="-30%" width="160%" height="160%"><feDropShadow dx="0" dy="10" stdDeviation="8" flood-color="#09231d" flood-opacity=".26"/></filter></defs><g filter="url(#s)" fill="none" stroke-linecap="round"><path d="M112 207 C120 157 126 102 139 38" stroke="#b6d58c" stroke-width="7"/><path d="M102 196 C86 150 74 104 61 51" stroke="#a8c87f" stroke-width="6"/><path d="M124 195 C154 154 178 106 196 59" stroke="#bfdc91" stroke-width="6"/><path d="M111 150 C75 133 51 104 42 65 C78 70 109 99 121 139 Z" fill="url(#a)" stroke="#d9e7a8" stroke-width="2"/><path d="M132 143 C138 99 161 64 196 43 C202 84 180 123 143 150 Z" fill="url(#b)" stroke="#d9e7a8" stroke-width="2"/><path d="M104 194 C66 183 39 157 28 121 C69 118 99 141 115 181 Z" fill="url(#a)" stroke="#d9e7a8" stroke-width="2"/><path d="M124 191 C151 164 187 150 216 154 C197 185 164 203 132 201 Z" fill="url(#b)" stroke="#d9e7a8" stroke-width="2"/><path d="M112 151 C94 131 76 104 58 72" stroke="#eef4c5" stroke-width="2" opacity=".62"/><path d="M138 143 C157 116 176 85 193 51" stroke="#eef4c5" stroke-width="2" opacity=".58"/></g></svg>
