<svg xmlns="http://www.w3.org/2000/svg" viewBox="0 0 240 300">
  <defs>
    <linearGradient id="r" x1="42" y1="22" x2="202" y2="282" gradientUnits="userSpaceOnUse">
      <stop stop-color="#ff7058"/>
      <stop offset=".52" stop-color="#c7372d"/>
      <stop offset="1" stop-color="#7f1d24"/>
    </linearGradient>
    <linearGradient id="g" x1="62" y1="30" x2="188" y2="268" gradientUnits="userSpaceOnUse">
      <stop stop-color="#fff1a9"/>
      <stop offset=".45" stop-color="#d8ad55"/>
      <stop offset="1" stop-color="#9e6d24"/>
    </linearGradient>
    <filter id="s" x="-30%" y="-30%" width="160%" height="160%">
      <feDropShadow dx="0" dy="18" stdDeviation="12" flood-color="#320707" flood-opacity=".35"/>
    </filter>
  </defs>
  <g filter="url(#s)">
    <path d="M48 30 H192 C202 30 210 38 210 48 V260 C210 272 202 280 190 280 H50 C38 280 30 272 30 260 V48 C30 38 38 30 48 30 Z" fill="url(#r)" stroke="url(#g)" stroke-width="5"/>
    <path d="M35 84 C80 116 158 116 205 84" fill="none" stroke="#ffdf86" stroke-width="6" opacity=".82"/>
    <circle cx="120" cy="143" r="48" fill="url(#g)" opacity=".96"/>
    <path d="M94 143 H146 M120 117 V169" stroke="#9b2b22" stroke-width="12" stroke-linecap="round"/>
    <path d="M62 230 H178" stroke="#ffdf86" stroke-width="5" opacity=".72"/>
    <path d="M76 55 H164" stroke="#ffefaa" stroke-width="5" stroke-linecap="round" opacity=".72"/>
  </g>
</svg>
