<svg xmlns="http://www.w3.org/2000/svg" viewBox="0 0 240 240"><defs><linearGradient id="c" x1="56" y1="46" x2="184" y2="210" gradientUnits="userSpaceOnUse"><stop stop-color="#c64a3a"/><stop offset=".55" stop-color="#8f2f28"/><stop offset="1" stop-color="#4d1d22"/></linearGradient><linearGradient id="g" x1="72" y1="47" x2="175" y2="198" gradientUnits="userSpaceOnUse"><stop stop-color="#fff0af"/><stop offset=".5" stop-color="#d8ad55"/><stop offset="1" stop-color="#9d6e24"/></linearGradient><filter id="s" x="-30%" y="-30%" width="160%" height="160%"><feDropShadow dx="0" dy="13" stdDeviation="8" flood-color="#1e0c0b" flood-opacity=".28"/></filter></defs><g filter="url(#s)"><path d="M120 24 C139 44 159 55 188 61 L178 181 C154 207 89 207 62 181 L52 61 C82 55 101 44 120 24 Z" fill="url(#c)" stroke="url(#g)" stroke-width="5"/><path d="M70 71 C99 82 141 82 170 71" fill="none" stroke="#f4d98d" stroke-width="6" stroke-linecap="round"/><path d="M120 43 C112 71 106 109 108 151 C132 138 146 114 145 87 C143 67 134 53 120 43 Z" fill="#1f6d55" opacity=".9"/><path d="M118 145 C104 123 90 107 70 94 C73 128 92 150 118 158 Z" fill="#78aa67" opacity=".9"/><path d="M120 42 C118 82 118 120 120 163" fill="none" stroke="#f2e6b8" stroke-width="3" opacity=".8"/><path d="M90 184 L79 220 M110 191 L106 226 M130 191 L134 226 M150 184 L161 220" stroke="url(#g)" stroke-width="5" stroke-linecap="round"/><circle cx="120" cy="166" r="8" fill="#f4d98d"/></g></svg>
