<svg xmlns="http://www.w3.org/2000/svg" viewBox="0 0 240 240"><defs><linearGradient id="w" x1="42" y1="193" x2="186" y2="48" gradientUnits="userSpaceOnUse"><stop stop-color="#174f42"/><stop offset=".48" stop-color="#3f8b5c"/><stop offset="1" stop-color="#a9c97a"/></linearGradient><linearGradient id="r" x1="74" y1="70" x2="160" y2="186" gradientUnits="userSpaceOnUse"><stop stop-color="#fff9e9"/><stop offset="1" stop-color="#e9d29a"/></linearGradient><filter id="s" x="-30%" y="-30%" width="160%" height="160%"><feDropShadow dx="0" dy="12" stdDeviation="8" flood-color="#08241d" flood-opacity=".3"/></filter></defs><g filter="url(#s)"><path d="M119 27 L213 192 L29 193 Z" fill="url(#w)" stroke="#f4d98d" stroke-width="3" stroke-linejoin="round"/><path d="M119 45 L178 174 L66 176 Z" fill="url(#r)" opacity=".9"/><path d="M35 190 C86 132 142 87 207 48" fill="none" stroke="#d9e7a8" stroke-width="15" opacity=".55"/><path d="M64 58 C112 104 151 146 190 195" fill="none" stroke="#0d463c" stroke-width="10" opacity=".6"/><path d="M43 158 C91 164 145 164 197 159" fill="none" stroke="#f4d98d" stroke-width="6" opacity=".85"/><path d="M117 30 C119 72 119 133 119 193" fill="none" stroke="#f4d98d" stroke-width="5" opacity=".8"/><path d="M77 187 C78 205 94 215 111 210" fill="none" stroke="#b63d2f" stroke-width="6" stroke-linecap="round"/><path d="M111 210 C119 219 132 219 140 208" fill="none" stroke="#b63d2f" stroke-width="5" stroke-linecap="round"/></g></svg>
